<mxfile host="app.diagrams.net" agent="Mozilla/5.0 (Macintosh; Intel Mac OS X 10_15_7) AppleWebKit/537.36 (KHTML, like Gecko) Chrome/136.0.0.0 Safari/537.36" version="27.0.3">
  <diagram name="第 1 页" id="v3UoIV-K40v_R0nd_CR2">
    <mxGraphModel dx="1344" dy="828" grid="1" gridSize="10" guides="1" tooltips="1" connect="1" arrows="1" fold="1" page="1" pageScale="1" pageWidth="827" pageHeight="1169" math="0" shadow="0">
      <root>
        <mxCell id="0" />
        <mxCell id="1" parent="0" />
        <mxCell id="ukhklaAYOwJYBebPquZN-9" value="" style="edgeStyle=orthogonalEdgeStyle;rounded=0;orthogonalLoop=1;jettySize=auto;html=1;" edge="1" parent="1" source="ukhklaAYOwJYBebPquZN-6" target="ukhklaAYOwJYBebPquZN-8">
          <mxGeometry relative="1" as="geometry" />
        </mxCell>
        <mxCell id="ukhklaAYOwJYBebPquZN-6" value="云发单推送调度" style="rounded=1;whiteSpace=wrap;html=1;" vertex="1" parent="1">
          <mxGeometry x="310" y="150" width="120" height="60" as="geometry" />
        </mxCell>
        <mxCell id="ukhklaAYOwJYBebPquZN-11" value="" style="edgeStyle=orthogonalEdgeStyle;rounded=0;orthogonalLoop=1;jettySize=auto;html=1;" edge="1" parent="1" source="ukhklaAYOwJYBebPquZN-8" target="ukhklaAYOwJYBebPquZN-10">
          <mxGeometry relative="1" as="geometry" />
        </mxCell>
        <mxCell id="ukhklaAYOwJYBebPquZN-8" value="拉取待推送用户" style="rounded=1;whiteSpace=wrap;html=1;" vertex="1" parent="1">
          <mxGeometry x="310" y="260" width="120" height="60" as="geometry" />
        </mxCell>
        <mxCell id="ukhklaAYOwJYBebPquZN-13" value="" style="edgeStyle=orthogonalEdgeStyle;rounded=0;orthogonalLoop=1;jettySize=auto;html=1;" edge="1" parent="1" source="ukhklaAYOwJYBebPquZN-10">
          <mxGeometry relative="1" as="geometry">
            <mxPoint x="370" y="520" as="targetPoint" />
          </mxGeometry>
        </mxCell>
        <mxCell id="ukhklaAYOwJYBebPquZN-10" value="拉取待推送的一个消息" style="rounded=1;whiteSpace=wrap;html=1;" vertex="1" parent="1">
          <mxGeometry x="310" y="390" width="120" height="60" as="geometry" />
        </mxCell>
        <mxCell id="ukhklaAYOwJYBebPquZN-29" style="edgeStyle=orthogonalEdgeStyle;rounded=0;orthogonalLoop=1;jettySize=auto;html=1;exitX=1;exitY=0.5;exitDx=0;exitDy=0;entryX=0;entryY=0.5;entryDx=0;entryDy=0;" edge="1" parent="1" source="ukhklaAYOwJYBebPquZN-23" target="ukhklaAYOwJYBebPquZN-26">
          <mxGeometry relative="1" as="geometry" />
        </mxCell>
        <mxCell id="ukhklaAYOwJYBebPquZN-23" value="推送线程" style="whiteSpace=wrap;html=1;" vertex="1" parent="1">
          <mxGeometry x="310" y="520" width="120" height="60" as="geometry" />
        </mxCell>
        <mxCell id="ukhklaAYOwJYBebPquZN-28" value="" style="edgeStyle=orthogonalEdgeStyle;rounded=0;orthogonalLoop=1;jettySize=auto;html=1;" edge="1" parent="1" source="ukhklaAYOwJYBebPquZN-26" target="ukhklaAYOwJYBebPquZN-27">
          <mxGeometry relative="1" as="geometry" />
        </mxCell>
        <mxCell id="ukhklaAYOwJYBebPquZN-30" value="是" style="edgeLabel;html=1;align=center;verticalAlign=middle;resizable=0;points=[];" vertex="1" connectable="0" parent="ukhklaAYOwJYBebPquZN-28">
          <mxGeometry x="-0.125" relative="1" as="geometry">
            <mxPoint as="offset" />
          </mxGeometry>
        </mxCell>
        <mxCell id="ukhklaAYOwJYBebPquZN-67" value="" style="edgeStyle=orthogonalEdgeStyle;rounded=0;orthogonalLoop=1;jettySize=auto;html=1;" edge="1" parent="1" source="ukhklaAYOwJYBebPquZN-26" target="ukhklaAYOwJYBebPquZN-66">
          <mxGeometry relative="1" as="geometry" />
        </mxCell>
        <mxCell id="ukhklaAYOwJYBebPquZN-26" value="判断次消息是否已经已推送？" style="rhombus;whiteSpace=wrap;html=1;" vertex="1" parent="1">
          <mxGeometry x="580" y="150" width="80" height="80" as="geometry" />
        </mxCell>
        <mxCell id="ukhklaAYOwJYBebPquZN-27" value="移除该用户待推送队列此消息" style="whiteSpace=wrap;html=1;" vertex="1" parent="1">
          <mxGeometry x="770" y="160" width="120" height="60" as="geometry" />
        </mxCell>
        <mxCell id="ukhklaAYOwJYBebPquZN-36" value="" style="edgeStyle=orthogonalEdgeStyle;rounded=0;orthogonalLoop=1;jettySize=auto;html=1;" edge="1" parent="1" source="ukhklaAYOwJYBebPquZN-31" target="ukhklaAYOwJYBebPquZN-35">
          <mxGeometry relative="1" as="geometry" />
        </mxCell>
        <mxCell id="ukhklaAYOwJYBebPquZN-31" value="调用转链服务,如果限流超过x次，添加参数不再触发转链限流" style="whiteSpace=wrap;html=1;" vertex="1" parent="1">
          <mxGeometry x="560" y="360" width="120" height="60" as="geometry" />
        </mxCell>
        <mxCell id="ukhklaAYOwJYBebPquZN-43" value="" style="edgeStyle=orthogonalEdgeStyle;rounded=0;orthogonalLoop=1;jettySize=auto;html=1;" edge="1" parent="1" source="ukhklaAYOwJYBebPquZN-35" target="ukhklaAYOwJYBebPquZN-42">
          <mxGeometry relative="1" as="geometry" />
        </mxCell>
        <mxCell id="ukhklaAYOwJYBebPquZN-45" value="是" style="edgeLabel;html=1;align=center;verticalAlign=middle;resizable=0;points=[];" vertex="1" connectable="0" parent="ukhklaAYOwJYBebPquZN-43">
          <mxGeometry x="-0.425" y="2" relative="1" as="geometry">
            <mxPoint as="offset" />
          </mxGeometry>
        </mxCell>
        <mxCell id="ukhklaAYOwJYBebPquZN-52" value="" style="edgeStyle=orthogonalEdgeStyle;rounded=0;orthogonalLoop=1;jettySize=auto;html=1;" edge="1" parent="1" source="ukhklaAYOwJYBebPquZN-35">
          <mxGeometry relative="1" as="geometry">
            <mxPoint x="620" y="600" as="targetPoint" />
          </mxGeometry>
        </mxCell>
        <mxCell id="ukhklaAYOwJYBebPquZN-35" value="是否限流" style="rhombus;whiteSpace=wrap;html=1;" vertex="1" parent="1">
          <mxGeometry x="580" y="460" width="80" height="80" as="geometry" />
        </mxCell>
        <mxCell id="ukhklaAYOwJYBebPquZN-40" value="" style="edgeStyle=orthogonalEdgeStyle;rounded=0;orthogonalLoop=1;jettySize=auto;html=1;" edge="1" parent="1" source="ukhklaAYOwJYBebPquZN-37" target="ukhklaAYOwJYBebPquZN-39">
          <mxGeometry relative="1" as="geometry" />
        </mxCell>
        <mxCell id="ukhklaAYOwJYBebPquZN-37" value="根据配置，修改待推送用户下次拉取时间，减少用户下次等待时间，限流次数+1" style="whiteSpace=wrap;html=1;" vertex="1" parent="1">
          <mxGeometry x="860" y="470" width="120" height="60" as="geometry" />
        </mxCell>
        <mxCell id="ukhklaAYOwJYBebPquZN-39" value="结束" style="whiteSpace=wrap;html=1;" vertex="1" parent="1">
          <mxGeometry x="1040" y="470" width="120" height="60" as="geometry" />
        </mxCell>
        <mxCell id="ukhklaAYOwJYBebPquZN-44" style="edgeStyle=orthogonalEdgeStyle;rounded=0;orthogonalLoop=1;jettySize=auto;html=1;exitX=1;exitY=0.5;exitDx=0;exitDy=0;" edge="1" parent="1" source="ukhklaAYOwJYBebPquZN-42" target="ukhklaAYOwJYBebPquZN-37">
          <mxGeometry relative="1" as="geometry" />
        </mxCell>
        <mxCell id="ukhklaAYOwJYBebPquZN-46" value="否" style="edgeLabel;html=1;align=center;verticalAlign=middle;resizable=0;points=[];" vertex="1" connectable="0" parent="ukhklaAYOwJYBebPquZN-44">
          <mxGeometry x="0.125" y="1" relative="1" as="geometry">
            <mxPoint as="offset" />
          </mxGeometry>
        </mxCell>
        <mxCell id="ukhklaAYOwJYBebPquZN-42" value="限流次数&amp;gt;x" style="rhombus;whiteSpace=wrap;html=1;" vertex="1" parent="1">
          <mxGeometry x="730" y="460" width="80" height="80" as="geometry" />
        </mxCell>
        <mxCell id="ukhklaAYOwJYBebPquZN-47" style="edgeStyle=orthogonalEdgeStyle;rounded=0;orthogonalLoop=1;jettySize=auto;html=1;exitX=0.5;exitY=1;exitDx=0;exitDy=0;entryX=0.593;entryY=0.986;entryDx=0;entryDy=0;entryPerimeter=0;" edge="1" parent="1" source="ukhklaAYOwJYBebPquZN-42" target="ukhklaAYOwJYBebPquZN-39">
          <mxGeometry relative="1" as="geometry" />
        </mxCell>
        <mxCell id="ukhklaAYOwJYBebPquZN-48" value="是" style="edgeLabel;html=1;align=center;verticalAlign=middle;resizable=0;points=[];" vertex="1" connectable="0" parent="ukhklaAYOwJYBebPquZN-47">
          <mxGeometry x="0.0311" y="2" relative="1" as="geometry">
            <mxPoint as="offset" />
          </mxGeometry>
        </mxCell>
        <mxCell id="ukhklaAYOwJYBebPquZN-60" value="" style="edgeStyle=orthogonalEdgeStyle;rounded=0;orthogonalLoop=1;jettySize=auto;html=1;" edge="1" parent="1" source="ukhklaAYOwJYBebPquZN-53" target="ukhklaAYOwJYBebPquZN-59">
          <mxGeometry relative="1" as="geometry" />
        </mxCell>
        <mxCell id="ukhklaAYOwJYBebPquZN-53" value="从该用户队列移除该消息" style="whiteSpace=wrap;html=1;" vertex="1" parent="1">
          <mxGeometry x="570" y="610" width="120" height="60" as="geometry" />
        </mxCell>
        <mxCell id="ukhklaAYOwJYBebPquZN-59" value="推送到第三方" style="whiteSpace=wrap;html=1;" vertex="1" parent="1">
          <mxGeometry x="920" y="610" width="120" height="60" as="geometry" />
        </mxCell>
        <mxCell id="ukhklaAYOwJYBebPquZN-61" style="edgeStyle=orthogonalEdgeStyle;rounded=0;orthogonalLoop=1;jettySize=auto;html=1;exitX=1;exitY=0.5;exitDx=0;exitDy=0;entryX=0.603;entryY=1.048;entryDx=0;entryDy=0;entryPerimeter=0;" edge="1" parent="1" source="ukhklaAYOwJYBebPquZN-59" target="ukhklaAYOwJYBebPquZN-39">
          <mxGeometry relative="1" as="geometry" />
        </mxCell>
        <mxCell id="ukhklaAYOwJYBebPquZN-68" style="edgeStyle=orthogonalEdgeStyle;rounded=0;orthogonalLoop=1;jettySize=auto;html=1;exitX=0.5;exitY=1;exitDx=0;exitDy=0;entryX=0.5;entryY=0;entryDx=0;entryDy=0;" edge="1" parent="1" source="ukhklaAYOwJYBebPquZN-66" target="ukhklaAYOwJYBebPquZN-31">
          <mxGeometry relative="1" as="geometry" />
        </mxCell>
        <mxCell id="ukhklaAYOwJYBebPquZN-69" value="否" style="edgeLabel;html=1;align=center;verticalAlign=middle;resizable=0;points=[];" vertex="1" connectable="0" parent="ukhklaAYOwJYBebPquZN-68">
          <mxGeometry x="-0.5411" relative="1" as="geometry">
            <mxPoint as="offset" />
          </mxGeometry>
        </mxCell>
        <mxCell id="ukhklaAYOwJYBebPquZN-72" style="edgeStyle=orthogonalEdgeStyle;rounded=0;orthogonalLoop=1;jettySize=auto;html=1;exitX=1;exitY=0.5;exitDx=0;exitDy=0;entryX=0.5;entryY=0;entryDx=0;entryDy=0;" edge="1" parent="1" source="ukhklaAYOwJYBebPquZN-66" target="ukhklaAYOwJYBebPquZN-39">
          <mxGeometry relative="1" as="geometry" />
        </mxCell>
        <mxCell id="ukhklaAYOwJYBebPquZN-73" value="是" style="edgeLabel;html=1;align=center;verticalAlign=middle;resizable=0;points=[];" vertex="1" connectable="0" parent="ukhklaAYOwJYBebPquZN-72">
          <mxGeometry x="-0.4762" y="2" relative="1" as="geometry">
            <mxPoint as="offset" />
          </mxGeometry>
        </mxCell>
        <mxCell id="ukhklaAYOwJYBebPquZN-66" value="频控？" style="rhombus;whiteSpace=wrap;html=1;" vertex="1" parent="1">
          <mxGeometry x="580" y="250" width="80" height="80" as="geometry" />
        </mxCell>
      </root>
    </mxGraphModel>
  </diagram>
</mxfile>
